<?xml version="1.0" encoding="utf-8"?>
<svg xmlns="http://www.w3.org/2000/svg" viewBox="63.4244 2.6942 33.8062 23.7246" width="33.8062px" height="23.7246px"><defs><clipPath id="clip0_302_380"><rect fill="white" height="23.7247" transform="translate(110.188)" width="33.8122"/></clipPath></defs><g clip-path="url(#clip0_302_380)" transform="matrix(1, 0, 0, 1, -46.763554316216016, 2.694192211243376)" id="object-0"><path clip-rule="evenodd" d="M143.741 12.0148L139.641 8.08776H136.19V5.57774H139.298L142.014 1.28918C142.073 1.19676 142.113 1.09353 142.132 0.985368C142.152 0.877207 142.15 0.766242 142.127 0.658816C142.104 0.55139 142.06 0.449608 141.998 0.359287C141.937 0.268967 141.858 0.191878 141.767 0.132428C141.676 0.0729772 141.574 0.03233 141.468 0.0128093C141.361 -0.00671133 141.252 -0.00472279 141.146 0.0186613C141.04 0.0420454 140.94 0.0863666 140.851 0.149092C140.762 0.211817 140.686 0.291717 140.627 0.384224L138.398 3.90464H136.192L136.193 1.553H117.995L117.996 3.90464H115.79L113.561 0.384224C113.502 0.291717 113.426 0.211817 113.337 0.149092C113.249 0.0863666 113.148 0.0420454 113.042 0.0186613C112.937 -0.00472279 112.827 -0.00671133 112.721 0.0128093C112.614 0.03233 112.512 0.0729772 112.421 0.132428C112.33 0.191878 112.252 0.268967 112.19 0.359287C112.128 0.449608 112.084 0.55139 112.062 0.658816C112.039 0.766242 112.037 0.877207 112.056 0.985368C112.075 1.09353 112.115 1.19676 112.174 1.28918L114.89 5.57803H117.997V8.08805H114.546L110.446 12.0151C110.366 12.0902 110.302 12.1806 110.256 12.2812C110.211 12.3818 110.185 12.4905 110.182 12.6011C110.178 12.7117 110.196 12.8219 110.234 12.9255C110.273 13.029 110.331 13.1237 110.406 13.2042C110.481 13.2847 110.57 13.3494 110.67 13.3944C110.77 13.4394 110.877 13.4639 110.986 13.4666C111.095 13.4692 111.203 13.4498 111.305 13.4096C111.407 13.3694 111.499 13.3092 111.578 13.2324L115.201 9.76144H117.998L117.999 12.8648V12.8792C117.998 12.9769 117.999 13.078 118.001 13.1813H114.575V16.7393L111.523 19.8382C111.445 19.9155 111.382 20.0078 111.34 20.1097C111.297 20.2116 111.275 20.3211 111.274 20.4318C111.274 20.5425 111.295 20.6522 111.336 20.7546C111.378 20.857 111.439 20.95 111.516 21.0283C111.593 21.1065 111.685 21.1685 111.785 21.2105C111.886 21.2526 111.994 21.2739 112.103 21.2732C112.213 21.2726 112.32 21.25 112.421 21.2067C112.521 21.1634 112.612 21.1004 112.688 21.0212L116.224 17.433V14.8553H118.21C118.686 16.9596 120.104 19.6208 123.824 21.98L124.948 22.6457C125.442 22.9171 126.53 23.4656 127.094 23.7246C127.658 23.4656 128.746 22.9176 129.239 22.6457L130.364 21.98C134.083 19.6208 135.502 16.9596 135.977 14.8548H137.964V17.4326L141.499 21.0208C141.575 21.1 141.666 21.163 141.767 21.2063C141.867 21.2495 141.975 21.2722 142.084 21.2728C142.193 21.2735 142.301 21.2522 142.402 21.2101C142.503 21.168 142.595 21.1061 142.672 21.0278C142.749 20.9496 142.81 20.8565 142.851 20.7541C142.893 20.6518 142.914 20.542 142.913 20.4313C142.913 20.3207 142.89 20.2112 142.848 20.1093C142.805 20.0074 142.743 19.9151 142.665 19.8378L139.613 16.7395V13.182H136.187C136.189 13.0782 136.19 12.977 136.189 12.8799V12.8656L136.19 9.76216H138.987L142.61 13.2328C142.77 13.3822 142.981 13.4618 143.198 13.4542C143.415 13.4465 143.62 13.3524 143.769 13.1921C143.918 13.0318 143.999 12.8184 143.994 12.5981C143.989 12.3778 143.898 12.1685 143.742 12.0155L143.741 12.0148ZM119.475 3.62183C119.527 3.56883 119.589 3.5268 119.657 3.49816C119.725 3.46953 119.798 3.45484 119.872 3.45496H124.695C124.769 3.45376 124.843 3.46761 124.912 3.49569C124.981 3.52378 125.044 3.56554 125.097 3.61855C125.15 3.67156 125.193 3.73475 125.221 3.80445C125.25 3.87415 125.265 3.94897 125.265 4.02453C125.265 4.1001 125.25 4.17491 125.221 4.24462C125.193 4.31432 125.15 4.37751 125.097 4.43052C125.044 4.48353 124.981 4.52529 124.912 4.55337C124.843 4.58146 124.769 4.5953 124.695 4.5941H119.872C119.761 4.59414 119.652 4.56075 119.56 4.49818C119.468 4.4356 119.396 4.34665 119.353 4.24256C119.311 4.13848 119.3 4.02395 119.321 3.91346C119.343 3.80296 119.396 3.70148 119.475 3.62183ZM119.209 6.74076C119.209 6.66594 119.223 6.59185 119.251 6.52272C119.279 6.45359 119.321 6.39078 119.373 6.33787C119.425 6.28496 119.487 6.24298 119.555 6.21435C119.623 6.18571 119.696 6.17097 119.77 6.17097H126.957C127.032 6.16977 127.106 6.18362 127.175 6.2117C127.244 6.23979 127.307 6.28155 127.36 6.33456C127.413 6.38757 127.455 6.45076 127.484 6.52046C127.513 6.59016 127.528 6.66497 127.528 6.74054C127.528 6.81611 127.513 6.89092 127.484 6.96062C127.455 7.03032 127.413 7.09352 127.36 7.14653C127.307 7.19954 127.244 7.2413 127.175 7.26938C127.106 7.29747 127.032 7.31131 126.957 7.31011H119.77C119.696 7.31013 119.623 7.29542 119.555 7.26682C119.487 7.23821 119.425 7.19628 119.373 7.14341C119.321 7.09054 119.28 7.02777 119.251 6.95868C119.223 6.8896 119.209 6.81555 119.209 6.74076ZM124.375 9.46655C124.375 9.616 124.32 9.76011 124.219 9.86933C124.171 9.92169 124.113 9.96352 124.049 9.99222C123.984 10.0209 123.915 10.0359 123.844 10.0362H120.464C120.171 10.0362 119.933 9.78115 119.933 9.46655C119.933 9.31699 119.989 9.17286 120.089 9.06377C120.137 9.01138 120.195 8.96953 120.26 8.94083C120.324 8.91213 120.394 8.89718 120.464 8.89691H123.845C124.137 8.89691 124.375 9.15195 124.375 9.46655ZM119.45 12.1853C119.449 12.0357 119.505 11.8914 119.606 11.7825C119.655 11.73 119.713 11.6881 119.778 11.6595C119.843 11.6308 119.913 11.6159 119.984 11.6157H127.24C127.535 11.6157 127.774 11.8707 127.774 12.1853C127.775 12.3349 127.719 12.4791 127.618 12.5881C127.57 12.6405 127.511 12.6824 127.446 12.7111C127.381 12.7398 127.311 12.7547 127.24 12.7549H119.985C119.69 12.7544 119.451 12.4993 119.451 12.1847L119.45 12.1853ZM120.409 15.4718C120.146 15.4718 119.933 15.2169 119.933 14.9023C119.931 14.7556 119.981 14.6129 120.072 14.4995C120.159 14.3964 120.278 14.3327 120.409 14.3327H123.494C123.757 14.3327 123.97 14.5877 123.97 14.9023C123.972 15.049 123.923 15.1917 123.831 15.3051C123.745 15.4081 123.626 15.4718 123.494 15.4718H120.409ZM126.427 20.6535C126.408 20.6855 126.387 20.7156 126.362 20.7433C126.292 20.8246 126.197 20.8802 126.093 20.9015C126.064 20.9072 126.036 20.91 126.007 20.91H124.115C123.838 20.91 123.613 20.655 123.613 20.3405C123.612 20.1925 123.664 20.0492 123.76 19.9377C123.804 19.886 123.858 19.8444 123.919 19.8156C123.98 19.7869 124.047 19.7716 124.114 19.7709H126.007C126.171 19.7709 126.317 19.8606 126.409 19.9993C126.471 20.096 126.506 20.2083 126.509 20.3237C126.512 20.4392 126.483 20.5532 126.426 20.6532L126.427 20.6535ZM127.872 18.0145C127.82 18.0675 127.758 18.1095 127.69 18.1382C127.622 18.1668 127.549 18.1815 127.475 18.1813H121.541C121.394 18.179 121.253 18.1179 121.15 18.0114C121.047 17.9048 120.989 17.7613 120.989 17.6118C120.989 17.4623 121.047 17.3187 121.15 17.2122C121.253 17.1056 121.394 17.0446 121.541 17.0422H127.476C127.587 17.0422 127.695 17.0756 127.788 17.1381C127.88 17.2007 127.952 17.2897 127.994 17.3937C128.037 17.4978 128.048 17.6124 128.026 17.7228C128.005 17.8333 127.951 17.9348 127.873 18.0145H127.872ZM131.034 20.7429C131.029 20.7486 131.024 20.7542 131.018 20.7595C130.919 20.8558 130.787 20.9096 130.65 20.9097H128.602C128.302 20.9097 128.059 20.6547 128.059 20.3402C128.058 20.1901 128.115 20.0456 128.218 19.9374C128.268 19.8848 128.327 19.8429 128.393 19.8142C128.459 19.7855 128.53 19.7707 128.602 19.7706H130.65C130.738 19.771 130.823 19.7929 130.9 19.8345C130.978 19.876 131.043 19.936 131.092 20.0092C131.167 20.1197 131.202 20.253 131.192 20.3866C131.181 20.5202 131.125 20.646 131.034 20.7429H131.034ZM133.292 18.0139C133.209 18.117 133.094 18.1808 132.966 18.1808H130.046C129.792 18.1808 129.586 17.9257 129.586 17.6111C129.584 17.4651 129.632 17.3229 129.721 17.2083C129.804 17.1052 129.919 17.0415 130.047 17.0415H132.967C133.221 17.0415 133.427 17.2965 133.427 17.611C133.429 17.757 133.381 17.8993 133.292 18.0139ZM133.946 15.3045C133.902 15.3562 133.848 15.3978 133.787 15.4265C133.726 15.4553 133.66 15.4705 133.592 15.4712H126.019C125.743 15.4712 125.519 15.2163 125.519 14.9017C125.518 14.7538 125.57 14.6105 125.665 14.499C125.709 14.4472 125.763 14.4056 125.824 14.3768C125.885 14.348 125.951 14.3328 126.019 14.3321H133.592C133.868 14.3321 134.091 14.5871 134.091 14.9017C134.093 15.0496 134.041 15.1929 133.946 15.3045ZM134.626 12.5875C134.581 12.6394 134.526 12.6811 134.464 12.7099C134.402 12.7386 134.335 12.7538 134.267 12.7544H129.831C129.713 12.7538 129.599 12.7083 129.511 12.6268C129.399 12.5182 129.332 12.3697 129.325 12.2122C129.318 12.0548 129.371 11.9007 129.473 11.7819C129.517 11.73 129.573 11.6883 129.634 11.6596C129.696 11.6308 129.763 11.6156 129.831 11.6151H134.267C134.547 11.6151 134.774 11.8701 134.774 12.1847C134.776 12.333 134.723 12.4765 134.626 12.5875H134.626ZM134.916 9.86875C134.864 9.92173 134.802 9.96375 134.734 9.99238C134.666 10.021 134.593 10.0357 134.519 10.0356H126.485C126.337 10.0356 126.194 9.9756 126.089 9.86877C125.983 9.76194 125.924 9.61705 125.924 9.46597C125.924 9.3149 125.983 9.17 126.089 9.06318C126.194 8.95635 126.337 8.89633 126.485 8.89633H134.519C134.63 8.89634 134.739 8.92975 134.831 8.99235C134.923 9.05494 134.995 9.1439 135.037 9.24799C135.08 9.35207 135.091 9.4666 135.069 9.57709C135.048 9.68759 134.994 9.78908 134.916 9.86875H134.916ZM129.068 6.74076C129.067 6.59134 129.123 6.44725 129.223 6.33798C129.271 6.28561 129.329 6.24376 129.393 6.21506C129.457 6.18635 129.527 6.17139 129.597 6.17112H133.927C134.219 6.17112 134.456 6.42616 134.456 6.74076C134.457 6.89018 134.401 7.03427 134.301 7.14353C134.253 7.19585 134.195 7.23765 134.131 7.26633C134.067 7.29501 133.997 7.30996 133.927 7.31026H129.597C129.305 7.31026 129.068 7.05536 129.068 6.74076ZM134.916 4.42738C134.864 4.48031 134.802 4.52228 134.734 4.55089C134.666 4.5795 134.593 4.59419 134.519 4.5941H127.366C127.219 4.59173 127.079 4.53067 126.975 4.42412C126.872 4.31756 126.814 4.17404 126.814 4.02453C126.814 3.87502 126.872 3.73151 126.975 3.62495C127.079 3.51839 127.219 3.45734 127.366 3.45496H134.519C134.63 3.45497 134.739 3.48839 134.831 3.55098C134.923 3.61357 134.995 3.70254 135.037 3.80662C135.08 3.9107 135.091 4.02523 135.069 4.13573C135.048 4.24622 134.994 4.34772 134.916 4.42738Z" fill="#1656FC" fill-rule="evenodd"/></g></svg>